<?xml version="1.0" encoding="UTF-8" standalone="no"?>
<!DOCTYPE svg PUBLIC "-//W3C//DTD SVG 1.1//EN"
 "http://www.w3.org/Graphics/SVG/1.1/DTD/svg11.dtd">
<!-- Generated by graphviz version 2.26.3 (20100126.1600)
 -->
<!-- Title: RADOME archi Pages: 1 -->
<svg width="1163pt" height="260pt"
 viewBox="0.00 0.00 1163.00 260.00" xmlns="http://www.w3.org/2000/svg" xmlns:xlink="http://www.w3.org/1999/xlink">
<g id="graph1" class="graph" transform="scale(1 1) rotate(0) translate(4 256)">
<title>RADOME archi</title>
<polygon fill="white" stroke="white" points="-4,5 -4,-256 1160,-256 1160,5 -4,5"/>
<g id="graph2" class="cluster"><title>cluster_0</title>
<polygon fill="none" stroke="black" points="281,-92 281,-244 507,-244 507,-92 281,-92"/>
<text text-anchor="middle" x="394" y="-227.4" font-family="Times New Roman,serif" font-size="14.00">server side</text>
</g>
<g id="graph3" class="cluster"><title>cluster_1</title>
<polygon fill="none" stroke="blue" points="515,-92 515,-168 1147,-168 1147,-92 515,-92"/>
<text text-anchor="middle" x="831" y="-151.4" font-family="Times New Roman,serif" font-size="14.00">clients</text>
</g>
<g id="graph4" class="cluster"><title>cluster_2</title>
<polygon fill="none" stroke="green" points="8,-8 8,-84 384,-84 384,-8 8,-8"/>
<text text-anchor="middle" x="196" y="-67.4" font-family="Times New Roman,serif" font-size="14.00">CarInfotainment</text>
</g>
<g id="graph5" class="cluster"><title>cluster_3</title>
<polygon fill="none" stroke="red" points="392,-8 392,-84 838,-84 838,-8 392,-8"/>
<text text-anchor="middle" x="615" y="-67.4" font-family="Times New Roman,serif" font-size="14.00">Car Sensors</text>
</g>
<!-- RADOME Server -->
<g id="node1" class="node"><title>RADOME Server</title>
<polygon fill="none" stroke="orange" points="499,-212 383,-212 383,-176 499,-176 499,-212"/>
<text text-anchor="middle" x="441" y="-189.4" font-family="Times New Roman,serif" font-size="14.00">RADOME Server</text>
</g>
<!-- CarInfotainment -->
<g id="node2" class="node"><title>CarInfotainment</title>
<polygon fill="none" stroke="green" points="395,-136 289,-136 289,-100 395,-100 395,-136"/>
<text text-anchor="middle" x="342" y="-113.4" font-family="Times New Roman,serif" font-size="14.00">CarInfotainment</text>
</g>
<!-- RADOME Server&#45;&gt;CarInfotainment -->
<g id="edge3" class="edge"><title>RADOME Server&#45;&gt;CarInfotainment</title>
<path fill="none" stroke="black" d="M405.654,-175.747C401.99,-173.182 398.386,-170.551 395,-168 384.386,-160.005 373.005,-150.967 363.404,-142.796"/>
<polygon fill="black" stroke="black" points="365.651,-140.111 355.813,-136.178 361.05,-145.387 365.651,-140.111"/>
</g>
<!-- Car Sensors -->
<g id="node3" class="node"><title>Car Sensors</title>
<polygon fill="none" stroke="red" points="499,-136 413,-136 413,-100 499,-100 499,-136"/>
<text text-anchor="middle" x="456" y="-113.4" font-family="Times New Roman,serif" font-size="14.00">Car Sensors</text>
</g>
<!-- RADOME Server&#45;&gt;Car Sensors -->
<g id="edge7" class="edge"><title>RADOME Server&#45;&gt;Car Sensors</title>
<path fill="none" stroke="black" d="M438.715,-175.989C439.579,-167.063 441.513,-156.079 443.917,-146.08"/>
<polygon fill="black" stroke="black" points="447.371,-146.709 446.565,-136.145 440.607,-144.906 447.371,-146.709"/>
</g>
<!-- RADOME client n -->
<g id="node10" class="node"><title>RADOME client n</title>
<ellipse fill="none" stroke="black" cx="1059" cy="-118" rx="79.9985" ry="18"/>
<text text-anchor="middle" x="1059" y="-113.4" font-family="Times New Roman,serif" font-size="14.00">RADOME client n</text>
</g>
<!-- RADOME Server&#45;&gt;RADOME client n -->
<g id="edge14" class="edge"><title>RADOME Server&#45;&gt;RADOME client n</title>
<path fill="none" stroke="black" d="M499.339,-192.756C629.305,-189.654 934.269,-180.886 979,-168 998.646,-162.34 1018.66,-151.629 1033.89,-141.567"/>
<polygon fill="black" stroke="black" points="1036.05,-144.333 1042.27,-135.761 1032.06,-138.579 1036.05,-144.333"/>
</g>
<!-- client ... -->
<g id="node13" class="node"><title>client ...</title>
<ellipse fill="none" stroke="black" cx="920" cy="-118" rx="40.92" ry="18"/>
<text text-anchor="middle" x="920" y="-113.4" font-family="Times New Roman,serif" font-size="14.00">client ...</text>
</g>
<!-- RADOME Server&#45;&gt;client ... -->
<g id="edge18" class="edge"><title>RADOME Server&#45;&gt;client ...</title>
<path fill="none" stroke="black" d="M499.264,-192.878C610.706,-190.312 845.575,-183.046 879,-168 890.656,-162.753 901.102,-153.503 908.788,-144.374"/>
<polygon fill="black" stroke="black" points="911.776,-146.226 915.027,-136.142 906.197,-141.998 911.776,-146.226"/>
</g>
<!-- RADOME client 2 -->
<g id="node16" class="node"><title>RADOME client 2</title>
<ellipse fill="none" stroke="black" cx="781" cy="-118" rx="79.9985" ry="18"/>
<text text-anchor="middle" x="781" y="-113.4" font-family="Times New Roman,serif" font-size="14.00">RADOME client 2</text>
</g>
<!-- RADOME Server&#45;&gt;RADOME client 2 -->
<g id="edge22" class="edge"><title>RADOME Server&#45;&gt;RADOME client 2</title>
<path fill="none" stroke="black" d="M499.01,-191.123C564.13,-187.221 665.091,-179.405 701,-168 720.344,-161.856 740.193,-151.203 755.417,-141.304"/>
<polygon fill="black" stroke="black" points="757.503,-144.118 763.807,-135.603 753.569,-138.328 757.503,-144.118"/>
</g>
<!-- RADOME client 1 -->
<g id="node19" class="node"><title>RADOME client 1</title>
<ellipse fill="none" stroke="black" cx="603" cy="-118" rx="79.9985" ry="18"/>
<text text-anchor="middle" x="603" y="-113.4" font-family="Times New Roman,serif" font-size="14.00">RADOME client 1</text>
</g>
<!-- RADOME Server&#45;&gt;RADOME client 1 -->
<g id="edge26" class="edge"><title>RADOME Server&#45;&gt;RADOME client 1</title>
<path fill="none" stroke="black" d="M499.221,-176.69C506.324,-173.939 513.391,-171.005 520,-168 537.845,-159.886 556.981,-149.736 572.48,-140.705"/>
<polygon fill="black" stroke="black" points="574.349,-143.666 581.149,-135.541 570.767,-137.652 574.349,-143.666"/>
</g>
<!-- CarInfotainment&#45;&gt;RADOME Server -->
<g id="edge5" class="edge"><title>CarInfotainment&#45;&gt;RADOME Server</title>
<path fill="none" stroke="black" d="M371.817,-136.178C384.571,-145.824 399.415,-157.766 413,-168 413.741,-168.558 414.492,-169.12 415.25,-169.684"/>
<polygon fill="black" stroke="black" points="413.357,-172.637 423.485,-175.747 417.507,-167 413.357,-172.637"/>
</g>
<!-- Audio -->
<g id="node24" class="node"><title>Audio</title>
<ellipse fill="lightgrey" stroke="black" cx="342" cy="-34" rx="34.2118" ry="18"/>
<text text-anchor="middle" x="342" y="-29.4" font-family="Times New Roman,serif" font-size="14.00">Audio</text>
</g>
<!-- CarInfotainment&#45;&gt;Audio -->
<g id="edge29" class="edge"><title>CarInfotainment&#45;&gt;Audio</title>
<path fill="none" stroke="black" d="M342,-99.7733C342,-88.8758 342,-74.7946 342,-62.4587"/>
<polygon fill="black" stroke="black" points="345.5,-62.1911 342,-52.1912 338.5,-62.1912 345.5,-62.1911"/>
</g>
<!-- Video -->
<g id="node26" class="node"><title>Video</title>
<ellipse fill="lightgrey" stroke="black" cx="257" cy="-34" rx="33.0404" ry="18"/>
<text text-anchor="middle" x="257" y="-29.4" font-family="Times New Roman,serif" font-size="14.00">Video</text>
</g>
<!-- CarInfotainment&#45;&gt;Video -->
<g id="edge31" class="edge"><title>CarInfotainment&#45;&gt;Video</title>
<path fill="none" stroke="black" d="M317.169,-99.7642C311.023,-94.8778 304.599,-89.4359 299,-84 291.069,-76.3008 283.087,-67.2135 276.243,-58.9123"/>
<polygon fill="black" stroke="black" points="278.826,-56.5391 269.823,-50.9536 273.378,-60.9343 278.826,-56.5391"/>
</g>
<!-- Navigation -->
<g id="node28" class="node"><title>Navigation</title>
<ellipse fill="lightgrey" stroke="black" cx="155" cy="-34" rx="50.9823" ry="18"/>
<text text-anchor="middle" x="155" y="-29.4" font-family="Times New Roman,serif" font-size="14.00">Navigation</text>
</g>
<!-- CarInfotainment&#45;&gt;Navigation -->
<g id="edge33" class="edge"><title>CarInfotainment&#45;&gt;Navigation</title>
<path fill="none" stroke="black" d="M288.825,-109.135C265.328,-103.884 237.9,-95.8683 215,-84 201.953,-77.2381 189.2,-67.2406 178.83,-57.9587"/>
<polygon fill="black" stroke="black" points="181.11,-55.3005 171.399,-51.0658 176.35,-60.4326 181.11,-55.3005"/>
</g>
<!-- Phone -->
<g id="node30" class="node"><title>Phone</title>
<ellipse fill="lightgrey" stroke="black" cx="51" cy="-34" rx="34.8827" ry="18"/>
<text text-anchor="middle" x="51" y="-29.4" font-family="Times New Roman,serif" font-size="14.00">Phone</text>
</g>
<!-- CarInfotainment&#45;&gt;Phone -->
<g id="edge35" class="edge"><title>CarInfotainment&#45;&gt;Phone</title>
<path fill="none" stroke="black" d="M288.901,-115.018C226.567,-110.774 127.555,-101.489 95,-84 84.2375,-78.2184 74.864,-68.6922 67.5661,-59.4973"/>
<polygon fill="black" stroke="black" points="70.2318,-57.2157 61.4673,-51.263 64.6066,-61.3821 70.2318,-57.2157"/>
</g>
<!-- Car Sensors&#45;&gt;RADOME Server -->
<g id="edge9" class="edge"><title>Car Sensors&#45;&gt;RADOME Server</title>
<path fill="none" stroke="black" d="M458.272,-136.145C457.397,-145.092 455.455,-156.081 453.047,-166.07"/>
<polygon fill="black" stroke="black" points="449.597,-165.424 450.395,-175.989 456.359,-167.233 449.597,-165.424"/>
</g>
<!-- HVAC -->
<g id="node33" class="node"><title>HVAC</title>
<ellipse fill="lightgrey" stroke="black" cx="793" cy="-34" rx="37.0651" ry="18"/>
<text text-anchor="middle" x="793" y="-29.4" font-family="Times New Roman,serif" font-size="14.00">HVAC</text>
</g>
<!-- Car Sensors&#45;&gt;HVAC -->
<g id="edge38" class="edge"><title>Car Sensors&#45;&gt;HVAC</title>
<path fill="none" stroke="black" d="M488.647,-99.9204C495.815,-96.7102 503.507,-93.8158 511,-92 536.499,-85.821 723.156,-94.9486 747,-84 758.441,-78.7464 768.338,-69.182 775.99,-59.8147"/>
<polygon fill="black" stroke="black" points="778.857,-61.827 782.118,-51.7468 773.282,-57.5927 778.857,-61.827"/>
</g>
<!-- Speed -->
<g id="node35" class="node"><title>Speed</title>
<ellipse fill="lightgrey" stroke="black" cx="703" cy="-34" rx="34.8827" ry="18"/>
<text text-anchor="middle" x="703" y="-29.4" font-family="Times New Roman,serif" font-size="14.00">Speed</text>
</g>
<!-- Car Sensors&#45;&gt;Speed -->
<g id="edge40" class="edge"><title>Car Sensors&#45;&gt;Speed</title>
<path fill="none" stroke="black" d="M488.97,-99.9037C496.052,-96.7378 503.628,-93.8651 511,-92 542.931,-83.9216 629.365,-98.373 659,-84 669.992,-78.6687 679.406,-69.2212 686.672,-59.9633"/>
<polygon fill="black" stroke="black" points="689.675,-61.7845 692.724,-51.6379 684.013,-57.6684 689.675,-61.7845"/>
</g>
<!-- Lights -->
<g id="node37" class="node"><title>Lights</title>
<ellipse fill="lightgrey" stroke="black" cx="616" cy="-34" rx="34.2118" ry="18"/>
<text text-anchor="middle" x="616" y="-29.4" font-family="Times New Roman,serif" font-size="14.00">Lights</text>
</g>
<!-- Car Sensors&#45;&gt;Lights -->
<g id="edge42" class="edge"><title>Car Sensors&#45;&gt;Lights</title>
<path fill="none" stroke="black" d="M489.972,-99.9277C496.787,-96.8818 504.006,-94.0487 511,-92 537.664,-84.1894 548.543,-97.1842 573,-84 583.648,-78.2598 592.831,-68.7409 599.945,-59.5402"/>
<polygon fill="black" stroke="black" points="602.877,-61.4581 605.879,-51.2975 597.196,-57.3683 602.877,-61.4581"/>
</g>
<!-- Brakes -->
<g id="node39" class="node"><title>Brakes</title>
<ellipse fill="lightgrey" stroke="black" cx="527" cy="-34" rx="36.8951" ry="18"/>
<text text-anchor="middle" x="527" y="-29.4" font-family="Times New Roman,serif" font-size="14.00">Brakes</text>
</g>
<!-- Car Sensors&#45;&gt;Brakes -->
<g id="edge44" class="edge"><title>Car Sensors&#45;&gt;Brakes</title>
<path fill="none" stroke="black" d="M471.406,-99.7733C481.606,-87.7057 495.106,-71.734 506.248,-58.5514"/>
<polygon fill="black" stroke="black" points="509.048,-60.6604 512.831,-50.7637 503.702,-56.1417 509.048,-60.6604"/>
</g>
<!-- Engine -->
<g id="node41" class="node"><title>Engine</title>
<ellipse fill="lightgrey" stroke="black" cx="436" cy="-34" rx="36.2243" ry="18"/>
<text text-anchor="middle" x="436" y="-29.4" font-family="Times New Roman,serif" font-size="14.00">Engine</text>
</g>
<!-- Car Sensors&#45;&gt;Engine -->
<g id="edge46" class="edge"><title>Car Sensors&#45;&gt;Engine</title>
<path fill="none" stroke="black" d="M451.66,-99.7733C449.022,-88.6903 445.599,-74.3144 442.626,-61.8304"/>
<polygon fill="black" stroke="black" points="445.984,-60.82 440.263,-51.9026 439.174,-62.4414 445.984,-60.82"/>
</g>
<!-- RADOME client n&#45;&gt;RADOME Server -->
<g id="edge12" class="edge"><title>RADOME client n&#45;&gt;RADOME Server</title>
<path fill="none" stroke="black" d="M1028.69,-134.77C1009.92,-146.412 985.183,-161.033 961,-168 918.47,-180.252 640.687,-188.781 509.401,-192.257"/>
<polygon fill="black" stroke="black" points="508.97,-188.768 499.065,-192.529 509.153,-195.765 508.97,-188.768"/>
</g>
<!-- client ...&#45;&gt;RADOME Server -->
<g id="edge16" class="edge"><title>client ...&#45;&gt;RADOME Server</title>
<path fill="none" stroke="black" d="M901.521,-134.17C890.925,-145.831 877.12,-160.744 861,-168 829.577,-182.145 620.113,-189.414 509.306,-192.366"/>
<polygon fill="black" stroke="black" points="509.131,-188.869 499.226,-192.629 509.314,-195.866 509.131,-188.869"/>
</g>
<!-- RADOME client 2&#45;&gt;RADOME Server -->
<g id="edge20" class="edge"><title>RADOME client 2&#45;&gt;RADOME Server</title>
<path fill="none" stroke="black" d="M750.178,-134.625C731.397,-146.036 706.817,-160.435 683,-168 651.374,-178.045 569.287,-185.306 509.397,-189.56"/>
<polygon fill="black" stroke="black" points="508.973,-186.081 499.24,-190.269 509.46,-193.065 508.973,-186.081"/>
</g>
<!-- RADOME client 1&#45;&gt;RADOME Server -->
<g id="edge24" class="edge"><title>RADOME client 1&#45;&gt;RADOME Server</title>
<path fill="none" stroke="black" d="M567.631,-134.374C548.342,-144.691 524.175,-157.918 502,-168 498.991,-169.368 495.886,-170.722 492.745,-172.05"/>
<polygon fill="black" stroke="black" points="491.182,-168.908 483.265,-175.949 493.845,-175.382 491.182,-168.908"/>
</g>
</g>
</svg>
