<?xml version="1.0" encoding="UTF-8" standalone="no"?>
<!DOCTYPE svg PUBLIC "-//W3C//DTD SVG 1.1//EN"
 "http://www.w3.org/Graphics/SVG/1.1/DTD/svg11.dtd">
<!-- Generated by graphviz version 2.26.3 (20100126.1600)
 -->
<!-- Title: g Pages: 1 -->
<svg width="1198pt" height="294pt"
 viewBox="0.00 0.00 1198.00 294.00" xmlns="http://www.w3.org/2000/svg" xmlns:xlink="http://www.w3.org/1999/xlink">
<g id="graph1" class="graph" transform="scale(1 1) rotate(0) translate(4 290)">
<title>g</title>
<polygon fill="white" stroke="white" points="-4,5 -4,-290 1195,-290 1195,5 -4,5"/>
<g id="graph2" class="cluster"><title>cluster_PSD</title>
<polygon fill="#a2cd5a" stroke="#a2cd5a" points="20,-53 268,-53 280,-65 280,-255 268,-267 20,-267 8,-255 8,-65 20,-53"/>
<path fill="#a2cd5a" stroke="#a2cd5a" d="M268,-53C274,-53 280,-59 280,-65"/>
<path fill="#a2cd5a" stroke="#a2cd5a" d="M280,-255C280,-261 274,-267 268,-267"/>
<path fill="#a2cd5a" stroke="#a2cd5a" d="M20,-267C14,-267 8,-261 8,-255"/>
<path fill="#a2cd5a" stroke="#a2cd5a" d="M8,-65C8,-59 14,-53 20,-53"/>
<polyline fill="none" stroke="darkgreen" points="20,-53 268,-53 "/>
<path fill="none" stroke="darkgreen" d="M268,-53C274,-53 280,-59 280,-65"/>
<polyline fill="none" stroke="darkgreen" points="280,-65 280,-255 "/>
<path fill="none" stroke="darkgreen" d="M280,-255C280,-261 274,-267 268,-267"/>
<polyline fill="none" stroke="darkgreen" points="268,-267 20,-267 "/>
<path fill="none" stroke="darkgreen" d="M20,-267C14,-267 8,-261 8,-255"/>
<polyline fill="none" stroke="darkgreen" points="8,-255 8,-65 "/>
<path fill="none" stroke="darkgreen" d="M8,-65C8,-59 14,-53 20,-53"/>
<text text-anchor="middle" x="144" y="-250.4" font-family="Times New Roman,serif" font-size="14.00">Modele PSD</text>
</g>
<g id="graph3" class="cluster"><title>cluster_HTML_elem</title>
<polygon fill="darksalmon" stroke="darksalmon" points="386,-8 536,-8 548,-20 548,-266 536,-278 386,-278 374,-266 374,-20 386,-8"/>
<path fill="darksalmon" stroke="darksalmon" d="M536,-8C542,-8 548,-14 548,-20"/>
<path fill="darksalmon" stroke="darksalmon" d="M548,-266C548,-272 542,-278 536,-278"/>
<path fill="darksalmon" stroke="darksalmon" d="M386,-278C380,-278 374,-272 374,-266"/>
<path fill="darksalmon" stroke="darksalmon" d="M374,-20C374,-14 380,-8 386,-8"/>
<polyline fill="none" stroke="#cd3278" points="386,-8 536,-8 "/>
<path fill="none" stroke="#cd3278" d="M536,-8C542,-8 548,-14 548,-20"/>
<polyline fill="none" stroke="#cd3278" points="548,-20 548,-266 "/>
<path fill="none" stroke="#cd3278" d="M548,-266C548,-272 542,-278 536,-278"/>
<polyline fill="none" stroke="#cd3278" points="536,-278 386,-278 "/>
<path fill="none" stroke="#cd3278" d="M386,-278C380,-278 374,-272 374,-266"/>
<polyline fill="none" stroke="#cd3278" points="374,-266 374,-20 "/>
<path fill="none" stroke="#cd3278" d="M374,-20C374,-14 380,-8 386,-8"/>
<text text-anchor="middle" x="461" y="-261.4" font-family="Times New Roman,serif" font-size="14.00">Composants HTML</text>
</g>
<g id="graph4" class="cluster"><title>cluster_RM</title>
<polygon fill="brown" stroke="brown" points="630,-55 830,-55 842,-67 842,-229 830,-241 630,-241 618,-229 618,-67 630,-55"/>
<path fill="brown" stroke="brown" d="M830,-55C836,-55 842,-61 842,-67"/>
<path fill="brown" stroke="brown" d="M842,-229C842,-235 836,-241 830,-241"/>
<path fill="brown" stroke="brown" d="M630,-241C624,-241 618,-235 618,-229"/>
<path fill="brown" stroke="brown" d="M618,-67C618,-61 624,-55 630,-55"/>
<polyline fill="none" stroke="red" points="630,-55 830,-55 "/>
<path fill="none" stroke="red" d="M830,-55C836,-55 842,-61 842,-67"/>
<polyline fill="none" stroke="red" points="842,-67 842,-229 "/>
<path fill="none" stroke="red" d="M842,-229C842,-235 836,-241 830,-241"/>
<polyline fill="none" stroke="red" points="830,-241 630,-241 "/>
<path fill="none" stroke="red" d="M630,-241C624,-241 618,-235 618,-229"/>
<polyline fill="none" stroke="red" points="618,-229 618,-67 "/>
<path fill="none" stroke="red" d="M618,-67C618,-61 624,-55 630,-55"/>
<text text-anchor="middle" x="730" y="-224.4" font-family="Times New Roman,serif" font-size="14.00">RADOME MW</text>
</g>
<g id="graph5" class="cluster"><title>cluster_RS</title>
<polygon fill="orange" stroke="orange" points="896,-71 1170,-71 1182,-83 1182,-217 1170,-229 896,-229 884,-217 884,-83 896,-71"/>
<path fill="orange" stroke="orange" d="M1170,-71C1176,-71 1182,-77 1182,-83"/>
<path fill="orange" stroke="orange" d="M1182,-217C1182,-223 1176,-229 1170,-229"/>
<path fill="orange" stroke="orange" d="M896,-229C890,-229 884,-223 884,-217"/>
<path fill="orange" stroke="orange" d="M884,-83C884,-77 890,-71 896,-71"/>
<polyline fill="none" stroke="orange" points="896,-71 1170,-71 "/>
<path fill="none" stroke="orange" d="M1170,-71C1176,-71 1182,-77 1182,-83"/>
<polyline fill="none" stroke="orange" points="1182,-83 1182,-217 "/>
<path fill="none" stroke="orange" d="M1182,-217C1182,-223 1176,-229 1170,-229"/>
<polyline fill="none" stroke="orange" points="1170,-229 896,-229 "/>
<path fill="none" stroke="orange" d="M896,-229C890,-229 884,-223 884,-217"/>
<polyline fill="none" stroke="orange" points="884,-217 884,-83 "/>
<path fill="none" stroke="orange" d="M884,-83C884,-77 890,-71 896,-71"/>
<text text-anchor="middle" x="1033" y="-212.4" font-family="Times New Roman,serif" font-size="14.00">RADOME Server</text>
</g>
<!-- my_RADOME_serv1 -->
<g id="node1" class="node"><title>my_RADOME_serv1</title>
<polygon fill="yellow" stroke="yellow" points="1161,-129.5 905,-129.5 893,-117.5 893,-90.5 905,-78.5 1161,-78.5 1173,-90.5 1173,-117.5 1161,-129.5"/>
<path fill="yellow" stroke="yellow" d="M905,-129.5C899,-129.5 893,-123.5 893,-117.5"/>
<path fill="yellow" stroke="yellow" d="M893,-90.5C893,-84.5 899,-78.5 905,-78.5"/>
<path fill="yellow" stroke="yellow" d="M1161,-78.5C1167,-78.5 1173,-84.5 1173,-90.5"/>
<path fill="yellow" stroke="yellow" d="M1173,-117.5C1173,-123.5 1167,-129.5 1161,-129.5"/>
<polyline fill="none" stroke="#00008b" points="1161,-129.5 905,-129.5 "/>
<path fill="none" stroke="#00008b" d="M905,-129.5C899,-129.5 893,-123.5 893,-117.5"/>
<polyline fill="none" stroke="#00008b" points="893,-117.5 893,-90.5 "/>
<path fill="none" stroke="#00008b" d="M893,-90.5C893,-84.5 899,-78.5 905,-78.5"/>
<polyline fill="none" stroke="#00008b" points="905,-78.5 1161,-78.5 "/>
<path fill="none" stroke="#00008b" d="M1161,-78.5C1167,-78.5 1173,-84.5 1173,-90.5"/>
<polyline fill="none" stroke="#00008b" points="1173,-90.5 1173,-117.5 "/>
<path fill="none" stroke="#00008b" d="M1173,-117.5C1173,-123.5 1167,-129.5 1161,-129.5"/>
<text text-anchor="start" x="904" y="-115.167" font-family="Times New Roman,serif" font-size="10.00" fill="darkgreen">RADOME_functionName:</text>
<text text-anchor="start" x="1014" y="-115.167" font-family="Times New Roman,serif" font-size="10.00">RADOME_SimulateCAN_SpeedData</text>
<text text-anchor="start" x="945" y="-100.667" font-family="Times New Roman,serif" font-size="10.00" fill="#00008b">sendFrequency:</text>
<text text-anchor="start" x="1014" y="-100.667" font-family="Times New Roman,serif" font-size="10.00"> 1000ms</text>
<text text-anchor="start" x="1000" y="-86.6667" font-family="Times New Roman,serif" font-size="10.00" fill="#68228b">...:</text>
<text text-anchor="start" x="1014" y="-86.6667" font-family="Times New Roman,serif" font-size="10.00"> ...</text>
</g>
<!-- my_RADOME_serv2 -->
<g id="node2" class="node"><title>my_RADOME_serv2</title>
<polygon fill="yellow" stroke="yellow" points="1160,-197.5 906,-197.5 894,-185.5 894,-158.5 906,-146.5 1160,-146.5 1172,-158.5 1172,-185.5 1160,-197.5"/>
<path fill="yellow" stroke="yellow" d="M906,-197.5C900,-197.5 894,-191.5 894,-185.5"/>
<path fill="yellow" stroke="yellow" d="M894,-158.5C894,-152.5 900,-146.5 906,-146.5"/>
<path fill="yellow" stroke="yellow" d="M1160,-146.5C1166,-146.5 1172,-152.5 1172,-158.5"/>
<path fill="yellow" stroke="yellow" d="M1172,-185.5C1172,-191.5 1166,-197.5 1160,-197.5"/>
<polyline fill="none" stroke="#00008b" points="1160,-197.5 906,-197.5 "/>
<path fill="none" stroke="#00008b" d="M906,-197.5C900,-197.5 894,-191.5 894,-185.5"/>
<polyline fill="none" stroke="#00008b" points="894,-185.5 894,-158.5 "/>
<path fill="none" stroke="#00008b" d="M894,-158.5C894,-152.5 900,-146.5 906,-146.5"/>
<polyline fill="none" stroke="#00008b" points="906,-146.5 1160,-146.5 "/>
<path fill="none" stroke="#00008b" d="M1160,-146.5C1166,-146.5 1172,-152.5 1172,-158.5"/>
<polyline fill="none" stroke="#00008b" points="1172,-158.5 1172,-185.5 "/>
<path fill="none" stroke="#00008b" d="M1172,-185.5C1172,-191.5 1166,-197.5 1160,-197.5"/>
<text text-anchor="start" x="905" y="-183.167" font-family="Times New Roman,serif" font-size="10.00" fill="darkgreen">RADOME_functionName:</text>
<text text-anchor="start" x="1015" y="-183.167" font-family="Times New Roman,serif" font-size="10.00">RADOME_SimulateCAN_TempData</text>
<text text-anchor="start" x="946" y="-168.667" font-family="Times New Roman,serif" font-size="10.00" fill="#00008b">sendFrequency:</text>
<text text-anchor="start" x="1015" y="-168.667" font-family="Times New Roman,serif" font-size="10.00"> 2500ms</text>
<text text-anchor="start" x="1001" y="-154.667" font-family="Times New Roman,serif" font-size="10.00" fill="#68228b">...:</text>
<text text-anchor="start" x="1015" y="-154.667" font-family="Times New Roman,serif" font-size="10.00"> ...</text>
</g>
<!-- my_RADOME_Middleware2 -->
<g id="node3" class="node"><title>my_RADOME_Middleware2</title>
<polygon fill="red" stroke="red" points="821,-209.5 639,-209.5 627,-197.5 627,-156.5 639,-144.5 821,-144.5 833,-156.5 833,-197.5 821,-209.5"/>
<path fill="red" stroke="red" d="M639,-209.5C633,-209.5 627,-203.5 627,-197.5"/>
<path fill="red" stroke="red" d="M627,-156.5C627,-150.5 633,-144.5 639,-144.5"/>
<path fill="red" stroke="red" d="M821,-144.5C827,-144.5 833,-150.5 833,-156.5"/>
<path fill="red" stroke="red" d="M833,-197.5C833,-203.5 827,-209.5 821,-209.5"/>
<polyline fill="none" stroke="#00008b" points="821,-209.5 639,-209.5 "/>
<path fill="none" stroke="#00008b" d="M639,-209.5C633,-209.5 627,-203.5 627,-197.5"/>
<polyline fill="none" stroke="#00008b" points="627,-197.5 627,-156.5 "/>
<path fill="none" stroke="#00008b" d="M627,-156.5C627,-150.5 633,-144.5 639,-144.5"/>
<polyline fill="none" stroke="#00008b" points="639,-144.5 821,-144.5 "/>
<path fill="none" stroke="#00008b" d="M821,-144.5C827,-144.5 833,-150.5 833,-156.5"/>
<polyline fill="none" stroke="#00008b" points="833,-156.5 833,-197.5 "/>
<path fill="none" stroke="#00008b" d="M833,-197.5C833,-203.5 827,-209.5 821,-209.5"/>
<text text-anchor="start" x="653" y="-195.167" font-family="Times New Roman,serif" font-size="10.00" fill="darkgreen">inputName:</text>
<text text-anchor="start" x="703" y="-195.167" font-family="Times New Roman,serif" font-size="10.00">RM_Gauje</text>
<text text-anchor="start" x="638" y="-180.667" font-family="Times New Roman,serif" font-size="10.00" fill="#00008b">callbackToCall:</text>
<text text-anchor="start" x="703" y="-180.667" font-family="Times New Roman,serif" font-size="10.00"> &quot;SimulateCAN_SpeedData()&quot;</text>
<text text-anchor="start" x="649" y="-166.667" font-family="Times New Roman,serif" font-size="10.00" fill="#00008b">dataToBind:</text>
<text text-anchor="start" x="703" y="-166.667" font-family="Times New Roman,serif" font-size="10.00"> &quot;speed[]&quot;</text>
<text text-anchor="start" x="689" y="-152.667" font-family="Times New Roman,serif" font-size="10.00" fill="#68228b">...:</text>
<text text-anchor="start" x="703" y="-152.667" font-family="Times New Roman,serif" font-size="10.00"> ...</text>
</g>
<!-- my_RADOME_Middleware2&#45;&gt;my_RADOME_serv2 -->
<g id="edge12" class="edge"><title>my_RADOME_Middleware2&#45;&gt;my_RADOME_serv2</title>
<path fill="none" stroke="black" d="M833.851,-175.286C849.741,-175.024 866.409,-174.749 883.051,-174.474"/>
<polygon fill="black" stroke="black" points="883.463,-177.968 893.404,-174.304 883.347,-170.969 883.463,-177.968"/>
<text text-anchor="middle" x="863" y="-177.8" font-family="Times New Roman,serif" font-size="8.00">utilise</text>
</g>
<!-- my_RADOME_Middleware1 -->
<g id="node4" class="node"><title>my_RADOME_Middleware1</title>
<polygon fill="red" stroke="red" points="817,-127.5 643,-127.5 631,-115.5 631,-74.5 643,-62.5 817,-62.5 829,-74.5 829,-115.5 817,-127.5"/>
<path fill="red" stroke="red" d="M643,-127.5C637,-127.5 631,-121.5 631,-115.5"/>
<path fill="red" stroke="red" d="M631,-74.5C631,-68.5 637,-62.5 643,-62.5"/>
<path fill="red" stroke="red" d="M817,-62.5C823,-62.5 829,-68.5 829,-74.5"/>
<path fill="red" stroke="red" d="M829,-115.5C829,-121.5 823,-127.5 817,-127.5"/>
<polyline fill="none" stroke="#00008b" points="817,-127.5 643,-127.5 "/>
<path fill="none" stroke="#00008b" d="M643,-127.5C637,-127.5 631,-121.5 631,-115.5"/>
<polyline fill="none" stroke="#00008b" points="631,-115.5 631,-74.5 "/>
<path fill="none" stroke="#00008b" d="M631,-74.5C631,-68.5 637,-62.5 643,-62.5"/>
<polyline fill="none" stroke="#00008b" points="643,-62.5 817,-62.5 "/>
<path fill="none" stroke="#00008b" d="M817,-62.5C823,-62.5 829,-68.5 829,-74.5"/>
<polyline fill="none" stroke="#00008b" points="829,-74.5 829,-115.5 "/>
<path fill="none" stroke="#00008b" d="M829,-115.5C829,-121.5 823,-127.5 817,-127.5"/>
<text text-anchor="start" x="657" y="-113.167" font-family="Times New Roman,serif" font-size="10.00" fill="darkgreen">inputName:</text>
<text text-anchor="start" x="707" y="-113.167" font-family="Times New Roman,serif" font-size="10.00">RM_BarDiagram</text>
<text text-anchor="start" x="642" y="-98.6667" font-family="Times New Roman,serif" font-size="10.00" fill="#00008b">callbackToCall:</text>
<text text-anchor="start" x="707" y="-98.6667" font-family="Times New Roman,serif" font-size="10.00"> &quot;SimulateCAN_TempData&quot;</text>
<text text-anchor="start" x="653" y="-84.6667" font-family="Times New Roman,serif" font-size="10.00" fill="#00008b">dataToBind:</text>
<text text-anchor="start" x="707" y="-84.6667" font-family="Times New Roman,serif" font-size="10.00"> &quot;temp[]&quot;</text>
<text text-anchor="start" x="693" y="-70.6667" font-family="Times New Roman,serif" font-size="10.00" fill="#68228b">...:</text>
<text text-anchor="start" x="707" y="-70.6667" font-family="Times New Roman,serif" font-size="10.00"> ...</text>
</g>
<!-- my_RADOME_Middleware1&#45;&gt;my_RADOME_serv1 -->
<g id="edge10" class="edge"><title>my_RADOME_Middleware1&#45;&gt;my_RADOME_serv1</title>
<path fill="none" stroke="black" d="M829.214,-97.9469C846.252,-98.453 864.296,-98.989 882.324,-99.5245"/>
<polygon fill="black" stroke="black" points="882.232,-103.023 892.331,-99.8217 882.44,-96.0263 882.232,-103.023"/>
<text text-anchor="middle" x="863" y="-102.8" font-family="Times New Roman,serif" font-size="8.00">utilise</text>
</g>
<!-- my_HTMLElem1 -->
<g id="node5" class="node"><title>my_HTMLElem1</title>
<polygon fill="coral" stroke="coral" points="527,-122.5 395,-122.5 383,-110.5 383,-27.5 395,-15.5 527,-15.5 539,-27.5 539,-110.5 527,-122.5"/>
<path fill="coral" stroke="coral" d="M395,-122.5C389,-122.5 383,-116.5 383,-110.5"/>
<path fill="coral" stroke="coral" d="M383,-27.5C383,-21.5 389,-15.5 395,-15.5"/>
<path fill="coral" stroke="coral" d="M527,-15.5C533,-15.5 539,-21.5 539,-27.5"/>
<path fill="coral" stroke="coral" d="M539,-110.5C539,-116.5 533,-122.5 527,-122.5"/>
<polyline fill="none" stroke="#cd3278" points="527,-122.5 395,-122.5 "/>
<path fill="none" stroke="#cd3278" d="M395,-122.5C389,-122.5 383,-116.5 383,-110.5"/>
<polyline fill="none" stroke="#cd3278" points="383,-110.5 383,-27.5 "/>
<path fill="none" stroke="#cd3278" d="M383,-27.5C383,-21.5 389,-15.5 395,-15.5"/>
<polyline fill="none" stroke="#cd3278" points="395,-15.5 527,-15.5 "/>
<path fill="none" stroke="#cd3278" d="M527,-15.5C533,-15.5 539,-21.5 539,-27.5"/>
<polyline fill="none" stroke="#cd3278" points="539,-27.5 539,-110.5 "/>
<path fill="none" stroke="#cd3278" d="M539,-110.5C539,-116.5 533,-122.5 527,-122.5"/>
<text text-anchor="start" x="394" y="-108.167" font-family="Times New Roman,serif" font-size="10.00" fill="darkgreen">HTML_elem:</text>
<text text-anchor="start" x="451" y="-108.167" font-family="Times New Roman,serif" font-size="10.00">HTML_BarDiagram</text>
<text text-anchor="start" x="426" y="-93.6667" font-family="Times New Roman,serif" font-size="10.00" fill="#00008b">type:</text>
<text text-anchor="start" x="451" y="-93.6667" font-family="Times New Roman,serif" font-size="10.00"> canvas</text>
<text text-anchor="start" x="440" y="-79.6667" font-family="Times New Roman,serif" font-size="10.00" fill="#00008b">x:</text>
<text text-anchor="start" x="451" y="-79.6667" font-family="Times New Roman,serif" font-size="10.00"> x_val px</text>
<text text-anchor="start" x="439" y="-65.6667" font-family="Times New Roman,serif" font-size="10.00" fill="#00008b">y:</text>
<text text-anchor="start" x="451" y="-65.6667" font-family="Times New Roman,serif" font-size="10.00">y_val px</text>
<text text-anchor="start" x="422" y="-51.6667" font-family="Times New Roman,serif" font-size="10.00" fill="#00008b">width:</text>
<text text-anchor="start" x="451" y="-51.6667" font-family="Times New Roman,serif" font-size="10.00">width_val px</text>
<text text-anchor="start" x="419" y="-37.6667" font-family="Times New Roman,serif" font-size="10.00" fill="#00008b">height:</text>
<text text-anchor="start" x="451" y="-37.6667" font-family="Times New Roman,serif" font-size="10.00"> height_val px</text>
<text text-anchor="start" x="437" y="-23.6667" font-family="Times New Roman,serif" font-size="10.00" fill="#68228b">...:</text>
<text text-anchor="start" x="451" y="-23.6667" font-family="Times New Roman,serif" font-size="10.00"> ...</text>
</g>
<!-- my_HTMLElem1&#45;&gt;my_RADOME_Middleware1 -->
<g id="edge6" class="edge"><title>my_HTMLElem1&#45;&gt;my_RADOME_Middleware1</title>
<path fill="none" stroke="black" d="M539.529,-76.5902C564.942,-79.0465 593.6,-81.8164 620.822,-84.4475"/>
<polygon fill="black" stroke="black" points="620.487,-87.9313 630.778,-85.4097 621.161,-80.9638 620.487,-87.9313"/>
<text text-anchor="middle" x="583" y="-85.8" font-family="Times New Roman,serif" font-size="8.00">interface avec</text>
</g>
<!-- my_HTMLElem2 -->
<g id="node6" class="node"><title>my_HTMLElem2</title>
<polygon fill="coral" stroke="coral" points="528,-246.5 394,-246.5 382,-234.5 382,-151.5 394,-139.5 528,-139.5 540,-151.5 540,-234.5 528,-246.5"/>
<path fill="coral" stroke="coral" d="M394,-246.5C388,-246.5 382,-240.5 382,-234.5"/>
<path fill="coral" stroke="coral" d="M382,-151.5C382,-145.5 388,-139.5 394,-139.5"/>
<path fill="coral" stroke="coral" d="M528,-139.5C534,-139.5 540,-145.5 540,-151.5"/>
<path fill="coral" stroke="coral" d="M540,-234.5C540,-240.5 534,-246.5 528,-246.5"/>
<polyline fill="none" stroke="#cd3278" points="528,-246.5 394,-246.5 "/>
<path fill="none" stroke="#cd3278" d="M394,-246.5C388,-246.5 382,-240.5 382,-234.5"/>
<polyline fill="none" stroke="#cd3278" points="382,-234.5 382,-151.5 "/>
<path fill="none" stroke="#cd3278" d="M382,-151.5C382,-145.5 388,-139.5 394,-139.5"/>
<polyline fill="none" stroke="#cd3278" points="394,-139.5 528,-139.5 "/>
<path fill="none" stroke="#cd3278" d="M528,-139.5C534,-139.5 540,-145.5 540,-151.5"/>
<polyline fill="none" stroke="#cd3278" points="540,-151.5 540,-234.5 "/>
<path fill="none" stroke="#cd3278" d="M540,-234.5C540,-240.5 534,-246.5 528,-246.5"/>
<text text-anchor="start" x="393" y="-232.167" font-family="Times New Roman,serif" font-size="10.00" fill="darkgreen">HTML_elemName:</text>
<text text-anchor="start" x="473" y="-232.167" font-family="Times New Roman,serif" font-size="10.00">HTML_Gauje</text>
<text text-anchor="start" x="448" y="-217.667" font-family="Times New Roman,serif" font-size="10.00" fill="#00008b">type:</text>
<text text-anchor="start" x="473" y="-217.667" font-family="Times New Roman,serif" font-size="10.00"> canvas</text>
<text text-anchor="start" x="462" y="-203.667" font-family="Times New Roman,serif" font-size="10.00" fill="#00008b">x:</text>
<text text-anchor="start" x="473" y="-203.667" font-family="Times New Roman,serif" font-size="10.00"> x_val px</text>
<text text-anchor="start" x="461" y="-189.667" font-family="Times New Roman,serif" font-size="10.00" fill="#00008b">y:</text>
<text text-anchor="start" x="473" y="-189.667" font-family="Times New Roman,serif" font-size="10.00">y_val px</text>
<text text-anchor="start" x="444" y="-175.667" font-family="Times New Roman,serif" font-size="10.00" fill="#00008b">width:</text>
<text text-anchor="start" x="473" y="-175.667" font-family="Times New Roman,serif" font-size="10.00">width_val px</text>
<text text-anchor="start" x="441" y="-161.667" font-family="Times New Roman,serif" font-size="10.00" fill="#00008b">height:</text>
<text text-anchor="start" x="473" y="-161.667" font-family="Times New Roman,serif" font-size="10.00"> height_val px</text>
<text text-anchor="start" x="459" y="-147.667" font-family="Times New Roman,serif" font-size="10.00" fill="#68228b">...:</text>
<text text-anchor="start" x="473" y="-147.667" font-family="Times New Roman,serif" font-size="10.00"> ...</text>
</g>
<!-- my_HTMLElem2&#45;&gt;my_RADOME_Middleware2 -->
<g id="edge8" class="edge"><title>my_HTMLElem2&#45;&gt;my_RADOME_Middleware2</title>
<path fill="none" stroke="black" d="M540.254,-188.286C564.06,-186.87 590.661,-185.288 616.236,-183.767"/>
<polygon fill="black" stroke="black" points="616.584,-187.252 626.358,-183.165 616.168,-180.265 616.584,-187.252"/>
<text text-anchor="middle" x="583" y="-189.8" font-family="Times New Roman,serif" font-size="8.00">interface avec</text>
</g>
<!-- my_PSDModel2 -->
<g id="node7" class="node"><title>my_PSDModel2</title>
<polygon fill="#6e8b3d" stroke="#6e8b3d" points="260,-235.5 28,-235.5 16,-223.5 16,-140.5 28,-128.5 260,-128.5 272,-140.5 272,-223.5 260,-235.5"/>
<path fill="#6e8b3d" stroke="#6e8b3d" d="M28,-235.5C22,-235.5 16,-229.5 16,-223.5"/>
<path fill="#6e8b3d" stroke="#6e8b3d" d="M16,-140.5C16,-134.5 22,-128.5 28,-128.5"/>
<path fill="#6e8b3d" stroke="#6e8b3d" d="M260,-128.5C266,-128.5 272,-134.5 272,-140.5"/>
<path fill="#6e8b3d" stroke="#6e8b3d" d="M272,-223.5C272,-229.5 266,-235.5 260,-235.5"/>
<polyline fill="none" stroke="darkgreen" points="260,-235.5 28,-235.5 "/>
<path fill="none" stroke="darkgreen" d="M28,-235.5C22,-235.5 16,-229.5 16,-223.5"/>
<polyline fill="none" stroke="darkgreen" points="16,-223.5 16,-140.5 "/>
<path fill="none" stroke="darkgreen" d="M16,-140.5C16,-134.5 22,-128.5 28,-128.5"/>
<polyline fill="none" stroke="darkgreen" points="28,-128.5 260,-128.5 "/>
<path fill="none" stroke="darkgreen" d="M260,-128.5C266,-128.5 272,-134.5 272,-140.5"/>
<polyline fill="none" stroke="darkgreen" points="272,-140.5 272,-223.5 "/>
<path fill="none" stroke="darkgreen" d="M272,-223.5C272,-229.5 266,-235.5 260,-235.5"/>
<text text-anchor="start" x="27" y="-221.167" font-family="Times New Roman,serif" font-size="10.00" fill="darkgreen">PSD_StructName:</text>
<text text-anchor="start" x="103" y="-221.167" font-family="Times New Roman,serif" font-size="10.00">PSD_Gauje</text>
<text text-anchor="start" x="72" y="-206.667" font-family="Times New Roman,serif" font-size="10.00" fill="#00008b">layer1:</text>
<text text-anchor="start" x="103" y="-206.667" font-family="Times New Roman,serif" font-size="10.00"> LBL_Digital_NotSelectedChecked_ClC</text>
<text text-anchor="start" x="72" y="-192.667" font-family="Times New Roman,serif" font-size="10.00" fill="#00008b">layer2:</text>
<text text-anchor="start" x="103" y="-192.667" font-family="Times New Roman,serif" font-size="10.00"> ROT_Digitalrpm</text>
<text text-anchor="start" x="72" y="-178.667" font-family="Times New Roman,serif" font-size="10.00" fill="#00008b">layer3:</text>
<text text-anchor="start" x="103" y="-178.667" font-family="Times New Roman,serif" font-size="10.00">CENTER_RPMForeground</text>
<text text-anchor="start" x="72" y="-164.667" font-family="Times New Roman,serif" font-size="10.00" fill="#00008b">layer4:</text>
<text text-anchor="start" x="103" y="-164.667" font-family="Times New Roman,serif" font-size="10.00">PICTO_ActiveRPMForeground</text>
<text text-anchor="start" x="72" y="-150.667" font-family="Times New Roman,serif" font-size="10.00" fill="#00008b">layer5:</text>
<text text-anchor="start" x="103" y="-150.667" font-family="Times New Roman,serif" font-size="10.00"> ROT_DigitalSpeed</text>
<text text-anchor="start" x="89" y="-136.667" font-family="Times New Roman,serif" font-size="10.00" fill="#68228b">...:</text>
<text text-anchor="start" x="103" y="-136.667" font-family="Times New Roman,serif" font-size="10.00"> ...</text>
</g>
<!-- my_PSDModel2&#45;&gt;my_HTMLElem2 -->
<g id="edge4" class="edge"><title>my_PSDModel2&#45;&gt;my_HTMLElem2</title>
<path fill="none" stroke="black" d="M272.022,-186.442C305.369,-187.6 340.586,-188.822 371.465,-189.893"/>
<polygon fill="black" stroke="black" points="371.646,-193.401 381.761,-190.25 371.889,-186.406 371.646,-193.401"/>
<text text-anchor="middle" x="327" y="-192.8" font-family="Times New Roman,serif" font-size="8.00">produit le composant</text>
</g>
<!-- my_PSDModel1 -->
<g id="node8" class="node"><title>my_PSDModel1</title>
<polygon fill="#6e8b3d" stroke="#6e8b3d" points="192,-111.5 96,-111.5 84,-99.5 84,-72.5 96,-60.5 192,-60.5 204,-72.5 204,-99.5 192,-111.5"/>
<path fill="#6e8b3d" stroke="#6e8b3d" d="M96,-111.5C90,-111.5 84,-105.5 84,-99.5"/>
<path fill="#6e8b3d" stroke="#6e8b3d" d="M84,-72.5C84,-66.5 90,-60.5 96,-60.5"/>
<path fill="#6e8b3d" stroke="#6e8b3d" d="M192,-60.5C198,-60.5 204,-66.5 204,-72.5"/>
<path fill="#6e8b3d" stroke="#6e8b3d" d="M204,-99.5C204,-105.5 198,-111.5 192,-111.5"/>
<polyline fill="none" stroke="darkgreen" points="192,-111.5 96,-111.5 "/>
<path fill="none" stroke="darkgreen" d="M96,-111.5C90,-111.5 84,-105.5 84,-99.5"/>
<polyline fill="none" stroke="darkgreen" points="84,-99.5 84,-72.5 "/>
<path fill="none" stroke="darkgreen" d="M84,-72.5C84,-66.5 90,-60.5 96,-60.5"/>
<polyline fill="none" stroke="darkgreen" points="96,-60.5 192,-60.5 "/>
<path fill="none" stroke="darkgreen" d="M192,-60.5C198,-60.5 204,-66.5 204,-72.5"/>
<polyline fill="none" stroke="darkgreen" points="204,-72.5 204,-99.5 "/>
<path fill="none" stroke="darkgreen" d="M204,-99.5C204,-105.5 198,-111.5 192,-111.5"/>
<text text-anchor="start" x="95" y="-97.1667" font-family="Times New Roman,serif" font-size="10.00" fill="darkgreen">Name:</text>
<text text-anchor="start" x="124" y="-97.1667" font-family="Times New Roman,serif" font-size="10.00">PSD_BarDiagram</text>
<text text-anchor="start" x="110" y="-82.6667" font-family="Times New Roman,serif" font-size="10.00" fill="#00008b">...:</text>
<text text-anchor="start" x="124" y="-82.6667" font-family="Times New Roman,serif" font-size="10.00"> ...</text>
<text text-anchor="start" x="110" y="-68.6667" font-family="Times New Roman,serif" font-size="10.00" fill="#68228b">...:</text>
<text text-anchor="start" x="124" y="-68.6667" font-family="Times New Roman,serif" font-size="10.00"> ...</text>
</g>
<!-- my_PSDModel1&#45;&gt;my_HTMLElem1 -->
<g id="edge2" class="edge"><title>my_PSDModel1&#45;&gt;my_HTMLElem1</title>
<path fill="none" stroke="black" d="M204.371,-82.7624C251.793,-80.2193 318.537,-76.64 372.07,-73.7691"/>
<polygon fill="black" stroke="black" points="372.449,-77.2539 382.247,-73.2233 372.074,-70.2639 372.449,-77.2539"/>
<text text-anchor="middle" x="327" y="-82.8" font-family="Times New Roman,serif" font-size="8.00">produit le composant</text>
</g>
</g>
</svg>
