<?xml version="1.0" encoding="UTF-8" standalone="no"?>
<!DOCTYPE svg PUBLIC "-//W3C//DTD SVG 1.1//EN"
 "http://www.w3.org/Graphics/SVG/1.1/DTD/svg11.dtd">
<!-- Generated by graphviz version 2.26.3 (20100126.1600)
 -->
<!-- Title: g Pages: 1 -->
<svg width="418pt" height="184pt"
 viewBox="0.00 0.00 418.00 184.00" xmlns="http://www.w3.org/2000/svg" xmlns:xlink="http://www.w3.org/1999/xlink">
<g id="graph1" class="graph" transform="scale(1 1) rotate(0) translate(4 180)">
<title>g</title>
<polygon fill="#7f7f7f" stroke="#7f7f7f" points="-4,5 -4,-180 415,-180 415,5 -4,5"/>
<g id="graph2" class="cluster"><title>cluster_sg1</title>
<polyline fill="none" stroke="#008b45" points="20,-92 230,-92 "/>
<path fill="none" stroke="#008b45" d="M230,-92C236,-92 242,-98 242,-104"/>
<polyline fill="none" stroke="#008b45" points="242,-104 242,-156 "/>
<path fill="none" stroke="#008b45" d="M242,-156C242,-162 236,-168 230,-168"/>
<polyline fill="none" stroke="#008b45" points="230,-168 20,-168 "/>
<path fill="none" stroke="#008b45" d="M20,-168C14,-168 8,-162 8,-156"/>
<polyline fill="none" stroke="#008b45" points="8,-156 8,-104 "/>
<path fill="none" stroke="#008b45" d="M8,-104C8,-98 14,-92 20,-92"/>
<text text-anchor="middle" x="125" y="-151.4" font-family="Times New Roman,serif" font-size="14.00">subGraph One</text>
</g>
<g id="graph3" class="cluster"><title>cluster_sg2</title>
<polyline fill="none" stroke="#cd3278" points="178,-8 390,-8 "/>
<path fill="none" stroke="#cd3278" d="M390,-8C396,-8 402,-14 402,-20"/>
<polyline fill="none" stroke="#cd3278" points="402,-20 402,-72 "/>
<path fill="none" stroke="#cd3278" d="M402,-72C402,-78 396,-84 390,-84"/>
<polyline fill="none" stroke="#cd3278" points="390,-84 178,-84 "/>
<path fill="none" stroke="#cd3278" d="M178,-84C172,-84 166,-78 166,-72"/>
<polyline fill="none" stroke="#cd3278" points="166,-72 166,-20 "/>
<path fill="none" stroke="#cd3278" d="M166,-20C166,-14 172,-8 178,-8"/>
<text text-anchor="middle" x="284" y="-67.4" font-family="Times New Roman,serif" font-size="14.00">subGraph Two</text>
</g>
<!-- myNode1 -->
<g id="node1" class="node"><title>myNode1</title>
<polygon fill="#bfbfbf" stroke="#bfbfbf" points="61,-136 29,-136 17,-124 17,-112 29,-100 61,-100 73,-112 73,-124 61,-136"/>
<path fill="#bfbfbf" stroke="#bfbfbf" d="M29,-136C23,-136 17,-130 17,-124"/>
<path fill="#bfbfbf" stroke="#bfbfbf" d="M17,-112C17,-106 23,-100 29,-100"/>
<path fill="#bfbfbf" stroke="#bfbfbf" d="M61,-100C67,-100 73,-106 73,-112"/>
<path fill="#bfbfbf" stroke="#bfbfbf" d="M73,-124C73,-130 67,-136 61,-136"/>
<polyline fill="none" stroke="lightsalmon" points="61,-136 29,-136 "/>
<path fill="none" stroke="lightsalmon" d="M29,-136C23,-136 17,-130 17,-124"/>
<polyline fill="none" stroke="lightsalmon" points="17,-124 17,-112 "/>
<path fill="none" stroke="lightsalmon" d="M17,-112C17,-106 23,-100 29,-100"/>
<polyline fill="none" stroke="lightsalmon" points="29,-100 61,-100 "/>
<path fill="none" stroke="lightsalmon" d="M61,-100C67,-100 73,-106 73,-112"/>
<polyline fill="none" stroke="lightsalmon" points="73,-112 73,-124 "/>
<path fill="none" stroke="lightsalmon" d="M73,-124C73,-130 67,-136 61,-136"/>
<text text-anchor="middle" x="45" y="-115" font-family="Times New Roman,serif" font-size="10.00">Node One</text>
</g>
<!-- myNode2 -->
<g id="node2" class="node"><title>myNode2</title>
<polygon fill="#bfbfbf" stroke="#bfbfbf" points="221,-52 187,-52 175,-40 175,-28 187,-16 221,-16 233,-28 233,-40 221,-52"/>
<path fill="#bfbfbf" stroke="#bfbfbf" d="M187,-52C181,-52 175,-46 175,-40"/>
<path fill="#bfbfbf" stroke="#bfbfbf" d="M175,-28C175,-22 181,-16 187,-16"/>
<path fill="#bfbfbf" stroke="#bfbfbf" d="M221,-16C227,-16 233,-22 233,-28"/>
<path fill="#bfbfbf" stroke="#bfbfbf" d="M233,-40C233,-46 227,-52 221,-52"/>
<polyline fill="none" stroke="lightcoral" points="221,-52 187,-52 "/>
<path fill="none" stroke="lightcoral" d="M187,-52C181,-52 175,-46 175,-40"/>
<polyline fill="none" stroke="lightcoral" points="175,-40 175,-28 "/>
<path fill="none" stroke="lightcoral" d="M175,-28C175,-22 181,-16 187,-16"/>
<polyline fill="none" stroke="lightcoral" points="187,-16 221,-16 "/>
<path fill="none" stroke="lightcoral" d="M221,-16C227,-16 233,-22 233,-28"/>
<polyline fill="none" stroke="lightcoral" points="233,-28 233,-40 "/>
<path fill="none" stroke="lightcoral" d="M233,-40C233,-46 227,-52 221,-52"/>
<text text-anchor="middle" x="204" y="-31" font-family="Times New Roman,serif" font-size="10.00">Node Two</text>
</g>
<!-- myNode1&#45;&gt;myNode2 -->
<g id="edge2" class="edge"><title>myNode1&#45;&gt;myNode2</title>
<path fill="none" stroke="black" d="M73.7937,-102.788C99.3616,-89.2807 136.939,-69.4287 165.161,-54.5188"/>
<polygon fill="black" stroke="black" points="167.135,-57.4341 174.342,-49.6682 163.866,-51.2447 167.135,-57.4341"/>
<text text-anchor="middle" x="124" y="-94.8" font-family="Times New Roman,serif" font-size="8.00">Connection One</text>
</g>
<!-- myNode4 -->
<g id="node4" class="node"><title>myNode4</title>
<polygon fill="#bfbfbf" stroke="#bfbfbf" points="221,-136 187,-136 175,-124 175,-112 187,-100 221,-100 233,-112 233,-124 221,-136"/>
<path fill="#bfbfbf" stroke="#bfbfbf" d="M187,-136C181,-136 175,-130 175,-124"/>
<path fill="#bfbfbf" stroke="#bfbfbf" d="M175,-112C175,-106 181,-100 187,-100"/>
<path fill="#bfbfbf" stroke="#bfbfbf" d="M221,-100C227,-100 233,-106 233,-112"/>
<path fill="#bfbfbf" stroke="#bfbfbf" d="M233,-124C233,-130 227,-136 221,-136"/>
<polyline fill="none" stroke="orange" points="221,-136 187,-136 "/>
<path fill="none" stroke="orange" d="M187,-136C181,-136 175,-130 175,-124"/>
<polyline fill="none" stroke="orange" points="175,-124 175,-112 "/>
<path fill="none" stroke="orange" d="M175,-112C175,-106 181,-100 187,-100"/>
<polyline fill="none" stroke="orange" points="187,-100 221,-100 "/>
<path fill="none" stroke="orange" d="M221,-100C227,-100 233,-106 233,-112"/>
<polyline fill="none" stroke="orange" points="233,-112 233,-124 "/>
<path fill="none" stroke="orange" d="M233,-124C233,-130 227,-136 221,-136"/>
<text text-anchor="middle" x="204" y="-115" font-family="Times New Roman,serif" font-size="10.00">Node Four</text>
</g>
<!-- myNode1&#45;&gt;myNode4 -->
<g id="edge6" class="edge"><title>myNode1&#45;&gt;myNode4</title>
<path fill="none" stroke="black" d="M73.7937,-118C99.0281,-118 135.96,-118 164.052,-118"/>
<polygon fill="black" stroke="black" points="164.342,-121.5 174.342,-118 164.342,-114.5 164.342,-121.5"/>
<text text-anchor="middle" x="124" y="-121.8" font-family="Times New Roman,serif" font-size="8.00">Connection Three</text>
</g>
<!-- myNode3 -->
<g id="node3" class="node"><title>myNode3</title>
<polygon fill="#bfbfbf" stroke="#bfbfbf" points="382,-52 342,-52 330,-40 330,-28 342,-16 382,-16 394,-28 394,-40 382,-52"/>
<path fill="#bfbfbf" stroke="#bfbfbf" d="M342,-52C336,-52 330,-46 330,-40"/>
<path fill="#bfbfbf" stroke="#bfbfbf" d="M330,-28C330,-22 336,-16 342,-16"/>
<path fill="#bfbfbf" stroke="#bfbfbf" d="M382,-16C388,-16 394,-22 394,-28"/>
<path fill="#bfbfbf" stroke="#bfbfbf" d="M394,-40C394,-46 388,-52 382,-52"/>
<polyline fill="none" stroke="lightpink" points="382,-52 342,-52 "/>
<path fill="none" stroke="lightpink" d="M342,-52C336,-52 330,-46 330,-40"/>
<polyline fill="none" stroke="lightpink" points="330,-40 330,-28 "/>
<path fill="none" stroke="lightpink" d="M330,-28C330,-22 336,-16 342,-16"/>
<polyline fill="none" stroke="lightpink" points="342,-16 382,-16 "/>
<path fill="none" stroke="lightpink" d="M382,-16C388,-16 394,-22 394,-28"/>
<polyline fill="none" stroke="lightpink" points="394,-28 394,-40 "/>
<path fill="none" stroke="lightpink" d="M394,-40C394,-46 388,-52 382,-52"/>
<text text-anchor="middle" x="362" y="-31" font-family="Times New Roman,serif" font-size="10.00">Node Three</text>
</g>
<!-- myNode2&#45;&gt;myNode3 -->
<g id="edge4" class="edge"><title>myNode2&#45;&gt;myNode3</title>
<path fill="none" stroke="black" d="M233.719,-34C258.053,-34 292.775,-34 319.959,-34"/>
<polygon fill="black" stroke="black" points="319.971,-37.5001 329.971,-34 319.971,-30.5001 319.971,-37.5001"/>
<text text-anchor="middle" x="282" y="-37.8" font-family="Times New Roman,serif" font-size="8.00">Connection Two</text>
</g>
</g>
</svg>
